#!Matlab matrix to amc conversion
:FULLY-SPECIFIED
:DEGREES
16
root 9.192140 16.357400 -29.724600 1.937653 1.634016 0.025302
lowerback 12.358526 -0.993209 -2.340273
upperback -0.360840 -1.526651 2.515269
thorax -7.111981 -0.597767 4.393733
lowerneck -11.830640 -0.103393 -1.417360
upperneck 26.635996 0.779002 -2.320295
head 10.711062 -0.052638 -0.497435
rclavicle -0.000000 0.000000
rhumerus -39.868001 -13.961346 -73.615030
rradius 25.015165
rwrist 4.201400
rhand -13.144695 10.565336
rfingers 7.125020
rthumb 12.958559 -18.957644
lclavicle -0.000000 0.000000
lhumerus -37.180473 3.872668 84.267084
lradius 42.519591
lwrist 6.666451
lhand -14.446814 44.586503
lfingers 7.125020
lthumb 11.700564 74.195401
rfemur -19.390114 6.942110 20.137434
rtibia 21.439460
rfoot -5.436005 -11.670031
rtoes 10.594096
lfemur 8.931281 -6.792196 -26.108488
ltibia 31.956576
lfoot 2.998525 -2.122980
ltoes -16.793578
17
root 9.191770 16.245600 -29.440800 2.174739 1.634016 -0.000274
lowerback 11.949333 -0.985596 -1.165805
upperback -0.701972 -1.284921 2.997774
thorax -7.313560 -0.506905 4.128732
lowerneck -11.762113 -0.144995 -1.493253
upperneck 27.320580 0.784921 -2.376329
head 10.936458 -0.078764 -0.500925
rclavicle -0.000000 0.000000
rhumerus -40.428909 -14.802146 -72.515360
rradius 23.970403
rwrist 4.966761
rhand -13.206774 10.410514
rfingers 7.125020
rthumb 12.898379 -19.117124
lclavicle -0.000000 0.000000
lhumerus -38.241860 4.949483 84.371171
lradius 41.265676
lwrist 6.250798
lhand -13.732609 45.271009
lfingers 7.125020
lthumb 12.390112 74.830140
rfemur -17.635838 6.351874 22.239104
rtibia 21.864088
rfoot -3.992674 -9.959195
rtoes 13.700538
lfemur 6.474502 -6.527383 -24.294361
ltibia 37.639158
lfoot 8.707026 -2.775265
ltoes -15.746760
18
root 9.208550 16.156600 -29.151500 2.389227 1.634016 -0.064029
lowerback 11.538720 -0.967739 0.123803
upperback -1.053075 -1.023794 3.495915
thorax -7.524222 -0.407311 3.845267
lowerneck -11.679407 -0.188187 -1.558973
upperneck 28.005087 0.787654 -2.440258
head 11.161368 -0.106070 -0.514728
rclavicle -0.000000 0.000000
rhumerus -41.002795 -15.655221 -71.397075
rradius 22.911720
rwrist 5.733406
rhand -13.270701 10.243047
rfingers 7.125020
rthumb 12.836563 -19.285232
lclavicle -0.000000 0.000000
lhumerus -39.355364 6.034862 84.476940
lradius 39.972609
lwrist 5.838953
lhand -13.001464 45.952192
lfingers 7.125020
lthumb 13.096174 75.460853
rfemur -15.814619 5.638049 24.487219
rtibia 22.299027
rfoot -2.864191 -7.945178
rtoes 16.957243
lfemur 3.725248 -6.160976 -22.328889
ltibia 43.705067
lfoot 14.659645 -3.417795
ltoes -14.221961
19
root 9.222000 16.080900 -28.855000 1.981525 1.634016 0.114903
lowerback 11.878096 -0.766706 0.965304
upperback -0.950660 -0.618964 3.586742
thorax -7.637268 -0.243115 3.425778
lowerneck -11.713611 -0.259811 -1.627784
upperneck 28.009695 0.604859 -2.060342
head 11.167552 -0.153299 -0.398646
rclavicle -0.000000 0.000000
rhumerus -39.701256 -14.913820 -72.253409
rradius 23.557994
rwrist 5.111432
rhand -13.191536 10.436306
rfingers 7.125020
rthumb 12.913038 -19.084433
lclavicle -0.000000 0.000000
lhumerus -39.806924 6.068054 84.494051
lradius 39.547697
lwrist 5.613836
lhand -12.707058 46.045241
lfingers 7.125020
lthumb 13.377286 75.532972
rfemur -13.496609 5.606749 26.101511
rtibia 23.056854
rfoot -4.683414 -7.347358
rtoes 16.984405
lfemur -1.555962 -4.659647 -20.765455
ltibia 50.056115
lfoot 11.901113 -2.205723
ltoes -13.965602
20
root 9.232280 16.013400 -28.551200 1.732027 1.634016 0.191991
lowerback 12.212937 -0.580555 1.731110
upperback -0.848592 -0.242938 3.662666
thorax -7.742311 -0.091297 3.028490
lowerneck -11.736029 -0.328592 -1.690600
upperneck 28.012349 0.433251 -1.773921
head 11.172809 -0.198590 -0.310574
rclavicle -0.000000 0.000000
rhumerus -38.567780 -14.204635 -73.068680
rradius 24.196723
rwrist 4.471800
rhand -13.120398 10.568343
rfingers 7.125020
rthumb 12.981956 -18.950525
lclavicle -0.000000 0.000000
lhumerus -40.201641 6.098823 84.509447
lradius 39.227747
lwrist 5.428466
lhand -12.427886 46.139556
lfingers 7.125020
lthumb 13.643897 75.607153
rfemur -11.430321 5.596550 27.472480
rtibia 23.653393
rfoot -6.367527 -6.852586
rtoes 16.979303
lfemur -6.307233 -3.310071 -19.435982
ltibia 55.317592
lfoot 9.411110 -1.079318
ltoes -13.934031
21
root 9.239730 15.970900 -28.241000 1.549892 1.634016 0.242781
lowerback 12.547085 -0.401009 2.477715
upperback -0.743151 0.121199 3.729704
thorax -7.842199 0.055138 2.636240
lowerneck -11.748825 -0.396642 -1.751923
upperneck 28.013083 0.265261 -1.518179
head 11.177211 -0.243380 -0.231021
rclavicle -0.000000 0.000000
rhumerus -37.460349 -13.466832 -73.907759
rradius 24.865944
rwrist 3.771347
rhand -13.055311 10.690161
rfingers 7.125020
rthumb 13.045227 -18.830646
lclavicle -0.000000 0.000000
lhumerus -40.565879 6.128338 84.523715
lradius 38.974426
lwrist 5.269997
lhand -12.154985 46.237117
lfingers 7.125020
lthumb 13.904569 75.684947
rfemur -9.453214 5.606909 28.767786
rtibia 24.231119
rfoot -8.025526 -6.424557
rtoes 16.941541
lfemur -10.878592 -2.002563 -18.188413
ltibia 60.067189
lfoot 6.684157 0.043103
ltoes -14.111778
22
root 9.241850 15.946000 -27.925100 1.368807 1.634016 0.317045
lowerback 12.884377 -0.220083 3.260200
upperback -0.630492 0.489827 3.793169
thorax -7.939642 0.202941 2.232084
lowerneck -11.753232 -0.466051 -1.816151
upperneck 28.011904 0.093478 -1.237022
head 11.180814 -0.289089 -0.142375
rclavicle -0.000000 0.000000
rhumerus -36.240205 -12.637127 -74.837415
rradius 25.605509
rwrist 2.962809
rhand -12.994470 10.848816
rfingers 7.125020
rthumb 13.104606 -18.677471
lclavicle -0.000000 0.000000
lhumerus -40.923968 6.157723 84.537401
lradius 38.757386
lwrist 5.127445
lhand -11.879593 46.339972
lfingers 7.125020
lthumb 14.167675 75.767980
rfemur -7.409766 5.638378 30.145837
rtibia 24.928013
rfoot -9.764718 -6.031864
rtoes 16.868198
lfemur -15.606812 -0.630858 -16.880054
ltibia 64.826396
lfoot 3.166674 1.242932
ltoes -14.585933
23
root 9.242890 15.925900 -27.604900 1.574893 1.634016 0.156210
lowerback 12.934404 -0.175605 3.932033
upperback -0.563636 0.655013 3.771220
thorax -7.916829 0.257211 1.831240
lowerneck -11.654517 -0.535195 -1.913376
upperneck 27.933496 -0.022987 -1.085586
head 11.125014 -0.336000 -0.087747
rclavicle -0.000000 0.000000
rhumerus -34.718733 -10.577768 -75.991137
rradius 27.726712
rwrist 1.266341
rhand -13.134809 10.884438
rfingers 7.125020
rthumb 12.967420 -18.663837
lclavicle -0.000000 0.000000
lhumerus -41.174998 6.269067 84.345620
lradius 38.904339
lwrist 5.031538
lhand -11.694321 46.643848
lfingers 7.125020
lthumb 14.347405 76.047457
rfemur -5.085676 5.827977 31.251564
rtibia 24.619771
rfoot -11.280298 -6.770644
rtoes 15.836629
lfemur -18.465475 -0.302732 -16.032012
ltibia 60.468254
lfoot -0.227863 2.970963
ltoes -14.886105
